<svg viewBox="0 0 16 20" xmlns="http://www.w3.org/2000/svg" style="display: none;">
    <symbol id="icon">
        <path d="M7.57258 0.280151C3.27358 0.280151 0 8.37379 0 12.4242C0 16.5043 3.3975 19.8241 7.57258 19.8241C11.7474 19.8241 15.1452 16.5043 15.1452 12.4242C15.1453 8.37379 11.8713 0.280151 7.57258 0.280151ZM7.57258 18.6098C4.08168 18.6098 1.2417 15.8352 1.2417 12.4242C1.2417 12.0305 1.2811 11.5844 1.35369 11.1078L1.69736 10.9611L2.34308 10.67L3.07611 10.3134L4.81318 12.4242L7.57258 9.23688L12.6516 10.7775L7.41299 8.25424L7.28938 8.10573L7.14261 8.26409L4.81318 10.7775L3.65748 9.23688L3.42245 8.9223L2.97173 9.07558L1.83983 9.46059L1.68995 9.51038C2.64372 5.88697 5.00697 1.4942 7.57258 1.4942C10.9076 1.4942 13.9031 8.91804 13.9031 12.4242C13.9031 15.8352 11.0632 18.6098 7.57258 18.6098Z"/>
    </symbol>
</svg>