<svg viewBox="0 0 20 17" xmlns="http://www.w3.org/2000/svg" style="display: none;">
    <symbol id="icon">
        <path d="M19.5103 1.01583C19.1839 0.696915 18.7916 0.537476 18.3334 0.537476H1.66665C1.20833 0.537476 0.816088 0.696879 0.489514 1.01583C0.163123 1.33481 0 1.71812 0 2.16602V14.5437C0 14.9917 0.163123 15.375 0.489514 15.694C0.816088 16.0129 1.20833 16.1724 1.66665 16.1724H18.3334C18.7916 16.1724 19.1839 16.0129 19.5103 15.694C19.8367 15.3751 20 14.9917 20 14.5437V2.16602C20 1.71812 19.8367 1.33481 19.5103 1.01583ZM18.6665 14.5439C18.6665 14.6323 18.6336 14.7084 18.5676 14.7731C18.5017 14.8373 18.4235 14.8694 18.3334 14.8694H1.66665C1.57643 14.8694 1.49828 14.8373 1.43231 14.7728C1.36639 14.7082 1.33337 14.632 1.33337 14.5437V8.35494H18.6666V14.5439H18.6665ZM18.6665 4.44601H1.33333V2.16588C1.33333 2.07767 1.36624 2.00148 1.43228 1.93688C1.49828 1.8726 1.57643 1.84033 1.66662 1.84033H18.3333C18.4235 1.84033 18.5016 1.87246 18.5676 1.93688C18.6335 2.00148 18.6665 2.07767 18.6665 2.16588V4.44601H18.6665Z"/>
        <path d="M5.33337 12.2636H2.66675V13.5666H5.33337V12.2636Z"/>
        <path d="M10.6667 12.2636H6.66675V13.5666H10.6667V12.2636Z"/>
    </symbol>
</svg>