<svg viewBox="0 0 20 21" xmlns="http://www.w3.org/2000/svg" style="display: none;">
    <symbol id="icon">
        <path d="M19.1471 0.866455H0.848806C0.383595 0.866455 0 1.2413 0 1.69591V16.0917C0 16.5463 0.383595 16.9211 0.848806 16.9211H1.85268C1.83228 17.0567 1.82412 17.1963 1.82412 17.3359C1.82412 19.0386 3.22383 20.4064 4.96633 20.4064C6.70884 20.4064 8.10855 19.0386 8.10855 17.3359C8.10855 17.1803 8.09631 17.0288 8.0759 16.8813H11.8792C11.8547 17.0288 11.8466 17.1843 11.8466 17.3359C11.8466 19.0386 13.2463 20.4064 14.9888 20.4064C16.6864 20.4064 18.131 19.0386 18.131 17.3359C18.131 17.1803 18.1188 17.0288 18.0983 16.8813H19.1104C19.5756 16.8813 19.9592 16.5064 20 16.0518V1.69591C19.9959 1.2413 19.6123 0.866455 19.1471 0.866455ZM4.96633 18.7874C4.15834 18.7874 3.48092 18.1254 3.48092 17.3359C3.48092 16.5463 4.15834 15.8843 4.96633 15.8843C5.81514 15.8843 6.45175 16.5463 6.45175 17.3359C6.45175 18.1254 5.77433 18.7874 4.96633 18.7874ZM14.9847 18.7874C14.1767 18.7874 13.4993 18.1254 13.4993 17.3359C13.4993 16.5463 14.1767 15.8843 14.9847 15.8843C15.7927 15.8843 16.4293 16.5463 16.4701 17.3359C16.4742 18.1254 15.7927 18.7874 14.9847 18.7874ZM18.2983 15.2224C18.2983 15.2224 17.2699 15.2224 17.2659 15.2224C16.6946 14.6322 15.8866 14.2693 14.9847 14.2693C14.0869 14.2693 13.2789 14.6362 12.7035 15.2224H7.2475C6.67619 14.6362 5.86819 14.2693 4.96633 14.2693C4.04407 14.2693 3.21975 14.6521 2.64844 15.2662H1.6568V2.52536H18.2983V15.2224Z"/>
        <path d="M9.99794 9.39623C10.5897 9.39623 11.0671 9.86678 11.0671 10.441C11.0671 10.9913 10.6305 11.4459 10.0755 11.4818C10.051 11.4778 10.0224 11.4778 9.99794 11.4778C9.97345 11.4778 9.94489 11.4778 9.9204 11.4818C9.65107 11.4619 9.40622 11.3502 9.2185 11.1548C8.94917 10.8757 8.4962 10.8597 8.21055 11.1229C7.92489 11.3861 7.90857 11.8288 8.1779 12.1079C8.47988 12.4229 8.86348 12.6502 9.2838 12.7739V13.2604C9.2838 13.6472 9.6021 13.9582 9.99794 13.9582C10.3938 13.9582 10.7121 13.6472 10.7121 13.2604V12.7778C11.7404 12.4788 12.4954 11.5416 12.4954 10.441C12.4954 9.09316 11.3732 8.00052 9.99794 8.00052C9.40622 8.00052 8.92877 7.52996 8.92877 6.95573C8.92877 6.40542 9.36541 5.95081 9.9204 5.91492C9.94489 5.91891 9.97345 5.91891 9.99794 5.91891C10.0224 5.91891 10.051 5.91891 10.0755 5.91492C10.3448 5.93486 10.5897 6.04652 10.7774 6.24192C11.0467 6.52106 11.4997 6.53701 11.7853 6.27382C12.071 6.01063 12.0873 5.56799 11.818 5.28884C11.516 4.97381 11.1324 4.74651 10.7121 4.62289V4.1324C10.7121 3.74558 10.3938 3.43454 9.99794 3.43454C9.6021 3.43454 9.2838 3.74558 9.2838 4.1324V4.61491C8.25544 4.914 7.50049 5.85112 7.50049 6.95174C7.50049 8.2996 8.61863 9.39623 9.99794 9.39623Z"/>
    </symbol>
</svg>