<svg viewBox="0 0 18 21" xmlns="http://www.w3.org/2000/svg" style="display: none;">
    <symbol id="icon">
        <path d="M17.0112 6.04219L17.0106 6.02698C17.0019 5.83925 16.9961 5.64064 16.9926 5.41966C16.9763 4.34206 16.0997 3.45069 14.9968 3.39045C12.6973 3.26505 10.9184 2.53233 9.39847 1.08463L9.3855 1.07256C8.88975 0.628362 8.14191 0.628362 7.646 1.07256L7.63303 1.08463C6.11311 2.53233 4.33424 3.26505 2.03475 3.39059C0.931998 3.45069 0.0552296 4.34206 0.0389027 5.41981C0.0355458 5.6393 0.0295949 5.83791 0.0208974 6.02698L0.0199819 6.06232C-0.0247263 8.35367 -0.0802682 11.2054 0.895987 13.7937C1.43279 15.2171 2.24578 16.4544 3.31221 17.4715C4.52681 18.6298 6.11769 19.5493 8.0406 20.2045C8.10316 20.2258 8.16816 20.2431 8.23438 20.2561C8.32777 20.2743 8.42176 20.2834 8.51575 20.2834C8.60975 20.2834 8.70389 20.2743 8.79713 20.2561C8.86335 20.2431 8.92881 20.2257 8.99168 20.2042C10.9123 19.5478 12.5015 18.6278 13.715 17.4697C14.781 16.4523 15.594 15.2147 16.1312 13.7911C17.1112 11.1949 17.0558 8.33786 17.0112 6.04219ZM15.0302 13.3943C14.0005 16.1224 11.8986 17.9959 8.60441 19.1217C8.59266 19.1256 8.58015 19.129 8.56718 19.1315C8.53315 19.1381 8.49851 19.1381 8.46403 19.1314C8.45121 19.1288 8.4387 19.1256 8.4271 19.1217C5.12938 17.998 3.02611 16.1255 1.99721 13.3973C1.0974 11.0114 1.14837 8.39363 1.19338 6.08424L1.19369 6.07141C1.20284 5.87295 1.20894 5.66509 1.2123 5.43666C1.21963 4.95817 1.60964 4.56229 2.10021 4.5356C3.40148 4.46462 4.54466 4.21889 5.59508 3.78439C6.64411 3.35048 7.57581 2.73884 8.44312 1.91457C8.48722 1.87819 8.54444 1.87804 8.58839 1.91457C9.45585 2.73884 10.3875 3.35048 11.4364 3.78439C12.4868 4.21889 13.63 4.46462 14.9315 4.5356C15.422 4.56229 15.812 4.95817 15.8192 5.43681C15.8227 5.66644 15.8288 5.87429 15.838 6.07141C15.8828 8.38349 15.9326 11.0033 15.0302 13.3943Z"/>
        <path d="M10.5825 7.83815L7.30661 11.3153L6.41746 10.3715C6.09315 10.0273 5.56738 10.0273 5.24307 10.3715C4.91898 10.7157 4.91898 11.2738 5.24307 11.6178L6.71953 13.1849C6.88168 13.3571 7.09415 13.443 7.30661 13.443C7.51908 13.443 7.73154 13.3571 7.8937 13.1849L11.7569 9.08443C12.081 8.7402 12.081 8.18215 11.7569 7.83815C11.4326 7.49369 10.9069 7.49369 10.5825 7.83815Z"/>
    </symbol>
</svg>