<svg viewBox="0 0 12 12" xmlns="http://www.w3.org/2000/svg" style="display: none;">
    <symbol id="icon">
        <path d="M10.7437 0.86553C9.38906 -0.435901 7.29609 -0.240419 6 1.26721C4.70391 -0.240419 2.61094 -0.438579 1.25625 0.86553C-0.506247 2.5606 -0.248435 5.32414 1.00781 6.78892L5.11875 11.5742C5.35312 11.8474 5.66719 12 6 12C6.33516 12 6.64687 11.85 6.88125 11.5769L10.9922 6.7916C12.2461 5.32682 12.5086 2.56328 10.7437 0.86553ZM10.1906 5.88649L6.07969 10.6718C6.02344 10.7361 5.97656 10.7361 5.92031 10.6718L1.80938 5.88649C0.953908 4.89033 0.780471 3.00513 1.98047 1.85098C2.89219 0.975321 4.29844 1.10654 5.17969 2.13215L6 3.08814L6.82031 2.13215C7.70625 1.10118 9.1125 0.975322 10.0195 1.8483C11.2172 3.00245 11.0391 4.89836 10.1906 5.88649Z"/>
    </symbol>
</svg>