<svg viewBox="0 0 20 18" xmlns="http://www.w3.org/2000/svg" style="display: none;">
    <symbol id="icon">
        <path d="M15.3572 10.4591H14.6428C14.5385 10.4591 14.4529 10.4917 14.3863 10.5573C14.3191 10.6226 14.2857 10.7062 14.2857 10.8081V14.298C14.2857 14.7779 14.1109 15.1886 13.7613 15.5304C13.4116 15.8721 12.9911 16.0428 12.5 16.0428H3.21422C2.72316 16.0428 2.30273 15.8721 1.95299 15.5304C1.60332 15.1887 1.4285 14.778 1.4285 14.298V5.22403C1.4285 4.74416 1.60328 4.33348 1.95299 3.99174C2.30273 3.64997 2.72316 3.47918 3.21422 3.47918H11.0713C11.1756 3.47918 11.2612 3.44637 11.3281 3.38101C11.395 3.31557 11.4284 3.23203 11.4284 3.13015V2.43205C11.4284 2.33037 11.395 2.24667 11.3281 2.18135C11.2612 2.11591 11.1756 2.08325 11.0713 2.08325H3.21422C2.32888 2.08325 1.57177 2.39045 0.942953 3.00482C0.31437 3.61915 0 4.359 0 5.22414V14.2982C0 15.1633 0.31437 15.9032 0.942992 16.5174C1.57181 17.1318 2.32892 17.4391 3.21426 17.4391H12.5C13.3853 17.4391 14.1425 17.1318 14.7713 16.5174C15.4 15.9032 15.7144 15.1633 15.7144 14.2982V10.8083C15.7144 10.7064 15.681 10.6227 15.6138 10.5573C15.5468 10.4917 15.4612 10.4591 15.3572 10.4591Z"/>
        <path d="M19.7878 0.894451C19.6464 0.756283 19.4788 0.687256 19.2854 0.687256H13.5712C13.3778 0.687256 13.2103 0.756283 13.069 0.894451C12.9276 1.03254 12.8568 1.19615 12.8568 1.3852C12.8568 1.57425 12.9276 1.7379 13.069 1.87607L15.0332 3.79552L7.75654 10.9064C7.68203 10.9791 7.6449 11.0628 7.6449 11.1571C7.6449 11.2518 7.68215 11.3354 7.75654 11.4081L9.02887 12.6513C9.10326 12.724 9.18887 12.7603 9.28559 12.7603C9.3823 12.7603 9.46794 12.724 9.5423 12.6513L16.819 5.54052L18.7834 7.45998C18.9246 7.59815 19.0921 7.66725 19.2856 7.66725C19.479 7.66725 19.6465 7.59815 19.7879 7.45998C19.9293 7.32185 20 7.15828 20 6.96923V1.3852C19.9999 1.19604 19.929 1.03254 19.7878 0.894451Z"/>
    </symbol>
</svg>