<svg viewBox="0 0 15 21" xmlns="http://www.w3.org/2000/svg" style="display: none;">
    <symbol id="icon">
        <path d="M7.03125 0.736145C3.15422 0.736145 0 3.81844 0 7.60707C0 8.88713 0.362852 10.1363 1.04957 11.2201L6.63102 20.0094C6.73793 20.1778 6.92629 20.2801 7.12887 20.2801C7.13043 20.2801 7.13195 20.2801 7.13352 20.2801C7.33785 20.2786 7.5266 20.1731 7.63156 20.0018L13.0707 11.1273C13.7196 10.0664 14.0625 8.84915 14.0625 7.60707C14.0625 3.81844 10.9083 0.736145 7.03125 0.736145ZM12.0651 10.5394L7.12 18.6077L2.04559 10.6168C1.47398 9.71469 1.16406 8.67398 1.16406 7.60707C1.16406 4.44988 3.80039 1.87367 7.03125 1.87367C10.2621 1.87367 12.8945 4.44988 12.8945 7.60707C12.8945 8.64233 12.605 9.65644 12.0651 10.5394Z"/>
        <path d="M7.03125 4.17163C5.09273 4.17163 3.51562 5.71278 3.51562 7.6071C3.51562 9.48931 5.06707 11.0426 7.03125 11.0426C9.01965 11.0426 10.5469 9.46862 10.5469 7.6071C10.5469 5.71278 8.96977 4.17163 7.03125 4.17163ZM7.03125 9.90504C5.73215 9.90504 4.67969 8.87314 4.67969 7.6071C4.67969 6.34422 5.73891 5.30915 7.03125 5.30915C8.32359 5.30915 9.37891 6.34422 9.37891 7.6071C9.37891 8.85466 8.35094 9.90504 7.03125 9.90504Z"/>
    </symbol>
</svg>