<svg viewBox="0 0 15 12" xmlns="http://www.w3.org/2000/svg" style="display: none;">
    <symbol id="icon">
        <path d="M11.7143 0H2.68747C1.23017 0 0.0445557 1.08292 0.0445557 2.41417V7.43442C0.0445557 8.76569 1.23017 9.84865 2.68747 9.84865H8.91897L11.1713 11.9057C11.2386 11.9674 11.3288 12 11.4205 12C11.4658 12 11.5117 11.9921 11.5552 11.9756C11.6869 11.9258 11.7728 11.8083 11.7728 11.6782V9.84803C13.2031 9.81942 14.3572 8.74771 14.3572 7.43442V2.4142C14.3572 1.08292 13.1716 0 11.7143 0ZM13.6524 7.43439C13.6524 8.41047 12.783 9.20483 11.7142 9.20483H11.4203C11.2257 9.20483 11.068 9.34881 11.068 9.52669V10.9011L9.31402 9.2991C9.24799 9.23878 9.15833 9.20483 9.06493 9.20483H2.68747C1.61879 9.20483 0.749305 8.41047 0.749305 7.43439V2.4142C0.749305 1.43786 1.61879 0.643761 2.68747 0.643761H11.7142C12.783 0.643761 13.6524 1.43783 13.6524 2.4142V7.43439H13.6524Z"/>
        <path d="M3.8971 4.22363C3.45919 4.22363 3.10425 4.54804 3.10425 4.9479C3.10425 5.34807 3.45919 5.67218 3.8971 5.67218C4.33482 5.67218 4.68999 5.34804 4.68999 4.9479C4.68999 4.54804 4.33482 4.22363 3.8971 4.22363Z"/>
        <path d="M7.20085 4.22363C6.76294 4.22363 6.40796 4.54804 6.40796 4.9479C6.40796 5.34807 6.76294 5.67218 7.20085 5.67218C7.63856 5.67218 7.99373 5.34804 7.99373 4.9479C7.9937 4.54804 7.63856 4.22363 7.20085 4.22363Z"/>
        <path d="M10.5046 4.22363C10.0667 4.22363 9.71167 4.54804 9.71167 4.9479C9.71167 5.34807 10.0667 5.67218 10.5046 5.67218C10.9423 5.67218 11.2974 5.34804 11.2974 4.9479C11.2974 4.54804 10.9423 4.22363 10.5046 4.22363Z"/>
    </symbol>
</svg>