<svg viewBox="0 0 18 20" xmlns="http://www.w3.org/2000/svg" style="display: none;">
    <symbol id="icon">
        <path d="M13.7134 5.3424V1.7459L10.9203 0.381104H6.73416L3.94089 1.7459V5.3424H0V19.9251H17.6543V5.3424H13.7134ZM12.5415 5.3424H11.3678V1.88009L12.5415 2.45371V5.3424ZM10.1959 2.6732H7.4585V1.52626H10.1959V2.6732ZM7.4585 3.81836H10.1959V5.3424H7.4585V3.81836ZM5.11276 2.45371L6.28662 1.88009V5.3424H5.11276V2.45371ZM16.4825 18.7799H1.17188V6.48755H16.4824V18.7799H16.4825Z"/>
        <path d="M6.33931 11.9205C6.78975 11.9205 7.24019 11.7529 7.5829 11.4178C8.26878 10.7477 8.26878 9.65744 7.5829 8.98734C6.89732 8.31725 5.78145 8.31725 5.09572 8.98734C4.40999 9.65744 4.40999 10.7477 5.09572 11.4178C5.43858 11.7529 5.88902 11.9205 6.33931 11.9205ZM5.92427 9.797C6.03886 9.68517 6.18901 9.62926 6.33931 9.62926C6.48961 9.62926 6.63991 9.68517 6.75435 9.797C6.98308 10.0207 6.98308 10.3845 6.75435 10.608C6.52547 10.8317 6.15315 10.8317 5.92427 10.608C5.69554 10.3845 5.69554 10.0207 5.92427 9.797Z"/>
        <path d="M10.0713 13.8496C9.38557 14.5197 9.38557 15.6102 10.0713 16.2803C10.4142 16.6152 10.8646 16.7828 11.315 16.7828C11.7653 16.7828 12.2158 16.6152 12.5586 16.2803C13.2444 15.6102 13.2444 14.5197 12.5586 13.8496C11.8729 13.1796 10.7572 13.1796 10.0713 13.8496ZM11.7299 15.4705C11.5011 15.694 11.1287 15.694 10.9 15.4705C10.6711 15.2468 10.6711 14.883 10.9 14.6595C11.0144 14.5476 11.1646 14.4917 11.3149 14.4917C11.4652 14.4917 11.6155 14.5476 11.7299 14.6593C11.9588 14.883 11.9588 15.2468 11.7299 15.4705Z"/>
        <path d="M12.9737 9.39191L5.50998 16.6854L4.68127 15.8757L12.145 8.58224L12.9737 9.39191Z" fill="#58616E"/>
    </symbol>
</svg>