<svg viewBox="0 0 20 20" xmlns="http://www.w3.org/2000/svg" style="display: none;">
    <symbol id="icon">
        <path d="M2.49998 3.34373V0.900672C2.49998 0.563051 2.77949 0.289917 3.12507 0.289917C3.47049 0.289917 3.75 0.563051 3.75 0.900672V3.34373C3.75 3.68128 3.47049 3.95441 3.12507 3.95441C2.77949 3.95445 2.49998 3.68128 2.49998 3.34373ZM13.1251 3.95445C13.4705 3.95445 13.7501 3.68132 13.7501 3.34378V0.900672C13.7501 0.563051 13.4705 0.289917 13.1251 0.289917C12.7796 0.289917 12.4999 0.563051 12.4999 0.900672V3.34373C12.4999 3.68128 12.7796 3.95445 13.1251 3.95445ZM20 14.9478C20 17.6464 17.7613 19.834 15 19.834C12.2389 19.834 10 17.6464 10 14.9478C10 12.2497 12.2388 10.0619 15 10.0619C17.7613 10.0619 20 12.2496 20 14.9478ZM18.7502 14.9478C18.7502 12.9274 17.068 11.2834 15 11.2834C12.9322 11.2834 11.2501 12.9273 11.2501 14.9478C11.2501 16.9687 12.9322 18.6124 15 18.6124C17.068 18.6124 18.7502 16.9687 18.7502 14.9478ZM5.00005 7.61894H2.49998V10.0619H5.00005V7.61894ZM2.49998 13.7265H5.00005V11.2834H2.49998V13.7265ZM6.24998 10.0619H8.75009V7.61894H6.24998V10.0619ZM6.24998 13.7265H8.75009V11.2834H6.24998V13.7265ZM1.25005 14.8264V6.39739H15V8.84045H16.2501V4.07617C16.2501 3.33419 15.6445 2.7329 14.8963 2.7329H14.375V3.34378C14.375 4.01648 13.8146 4.56525 13.1252 4.56525C12.4355 4.56525 11.8752 4.01648 11.8752 3.34378V2.7329H4.37496V3.34378C4.37496 4.01648 3.81467 4.56525 3.12511 4.56525C2.43539 4.56525 1.87506 4.01648 1.87506 3.34378V2.7329H1.35438C0.606169 2.7329 0 3.33419 0 4.07617V14.8264C0 15.5659 0.606169 16.1696 1.35438 16.1696H8.75009V14.9478H1.35438C1.29774 14.9478 1.25005 14.8907 1.25005 14.8264ZM12.4999 10.0619V7.61894H10.0001V10.0619H12.4999ZM16.875 14.9478H15V13.1155C15 12.7781 14.7205 12.5049 14.375 12.5049C14.0295 12.5049 13.7501 12.7781 13.7501 13.1155V15.5588C13.7501 15.8962 14.0295 16.1695 14.375 16.1695H16.875C17.2205 16.1695 17.5001 15.8962 17.5001 15.5588C17.5001 15.2211 17.2205 14.9478 16.875 14.9478Z"/>
    </symbol>
</svg>