<svg width="28" height="28" viewBox="0 0 28 28" fill="none" xmlns="http://www.w3.org/2000/svg">
<path d="M-6.11959e-07 14C-9.49011e-07 21.7108 6.26506 28 14 28C21.7349 28 28 21.7108 28 14C28 6.28916 21.7108 -2.74908e-07 14 -6.11959e-07C6.28916 -9.49011e-07 -2.74908e-07 6.28915 -6.11959e-07 14ZM26.0241 14C26.0241 20.6265 20.6265 26.0241 14 26.0241C7.37349 26.0241 1.9759 20.6265 1.9759 14C1.9759 7.37349 7.37349 1.9759 14 1.9759C20.6265 1.9759 26.0241 7.37349 26.0241 14Z" fill="#3BAAE9"/>
<path d="M7.01205 10.771C6.81928 10.9638 6.7229 11.2048 6.7229 11.4698C6.7229 11.7108 6.81928 11.9758 7.01205 12.1686L13.3735 18.5301C13.5663 18.7228 13.8072 18.8192 14.0723 18.8192C14.3374 18.8192 14.5783 18.7228 14.7711 18.5301L21.1325 12.1686C21.5181 11.7831 21.5181 11.1566 21.1325 10.771C20.747 10.3855 20.1205 10.3855 19.7349 10.771L14.0723 16.4337L8.40964 10.771C8.0241 10.3855 7.39759 10.3855 7.01205 10.771Z" fill="#3BAAE9"/>
</svg>
