<svg width="20" height="20" viewBox="0 0 20 20" fill="none" xmlns="http://www.w3.org/2000/svg">
<path d="M17.9062 1.44255C15.6484 -0.726502 12.1602 -0.400698 10 2.11201C7.83984 -0.400698 4.35156 -0.730966 2.09375 1.44255C-0.843745 4.26767 -0.414058 8.87356 1.67969 11.3149L8.53125 19.2904C8.92187 19.7456 9.44531 20 10 20C10.5586 20 11.0781 19.7501 11.4687 19.2948L18.3203 11.3193C20.4101 8.87803 20.8476 4.27214 17.9062 1.44255ZM16.9844 9.81081L10.1328 17.7863C10.0391 17.8934 9.96094 17.8934 9.86719 17.7863L3.01563 9.81081C1.58985 8.15055 1.30078 5.00854 3.30078 3.08496C4.82031 1.62554 7.16406 1.84423 8.63281 3.55358L10 5.1469L11.3672 3.55358C12.8437 1.8353 15.1875 1.62554 16.6992 3.0805C18.6953 5.00408 18.3984 8.16393 16.9844 9.81081Z" fill="#F07E99"/>
</svg>
