<svg width="19" height="16" viewBox="0 0 19 16" fill="none" xmlns="http://www.w3.org/2000/svg">
<path d="M0.185627 10.1489L2.6496 7.86336C3.13846 7.40988 4.02846 7.06799 4.71966 7.06799H11.1813C12.0546 7.06799 12.765 7.72703 12.765 8.53709V8.71338C12.765 9.52344 12.0546 10.1825 11.1813 10.1825H9.47992L9.81706 10.4952C10.0473 10.7088 10.5696 10.8705 10.8922 10.8276L16.3275 10.1073C17.0426 10.0125 17.9028 10.2389 18.3284 10.6337C18.5928 10.8789 18.7058 11.2057 18.6384 11.53C18.5593 11.9108 18.2462 12.2357 17.7792 12.4214L12.2092 14.6357C11.5993 14.8782 10.6542 14.9483 10.0107 14.7991L7.67332 14.257C7.12656 14.1302 6.29472 13.8647 5.77956 13.6526L5.16222 13.3984C4.93404 13.3044 4.54469 13.3798 4.37618 13.5505L2.14597 15.8093C2.02105 15.9359 1.85013 16 1.67864 16C1.52584 16 1.37254 15.949 1.25097 15.8458C0.99295 15.6266 0.975338 15.2548 1.21169 15.0155L3.44184 12.7567C3.9741 12.2175 4.95564 12.0275 5.6763 12.3242L6.29364 12.5784C6.73721 12.761 7.50976 13.0077 7.98063 13.1168L10.318 13.6589C10.6921 13.7457 11.3555 13.6963 11.71 13.5554L17.2342 11.3593C17.0402 11.2884 16.7551 11.2378 16.5066 11.2707L11.0711 11.991C10.3558 12.0861 9.43165 11.7999 8.92105 11.3262L8.17435 10.6335C7.65407 10.1509 7.76841 9.71706 7.84164 9.55294C7.91494 9.38881 8.16485 9.00708 8.90065 9.00708H11.1812C11.3529 9.00708 11.498 8.87251 11.498 8.71326V8.53697C11.498 8.37772 11.3529 8.24315 11.1812 8.24315H4.7196C4.36611 8.24315 3.7954 8.4624 3.54542 8.69434L1.08151 10.9799C0.83407 11.2093 0.433069 11.2093 0.185564 10.9799C-0.0617523 10.7504 -0.0617523 10.3783 0.185627 10.1489Z" fill="#3B4455"/>
<path d="M12.9345 6.30399C11.2443 6.30399 9.86916 4.95301 9.86916 3.29234C9.86916 1.63168 11.2443 0.280701 12.9345 0.280701C14.6248 0.280701 16 1.63168 16 3.29234C16 4.95301 14.6248 6.30399 12.9345 6.30399ZM12.9345 1.45598C11.9039 1.45598 11.0654 2.27979 11.0654 3.29234C11.0654 4.3049 11.9039 5.12871 12.9345 5.12871C13.9652 5.12871 14.8037 4.3049 14.8037 3.29234C14.8037 2.27979 13.9652 1.45598 12.9345 1.45598Z" fill="#3B4455"/>
</svg>
