<svg width="19" height="16" viewBox="0 0 19 16" fill="none" xmlns="http://www.w3.org/2000/svg">
<path d="M12.2694 4.86771H3.2C2.90612 4.86771 2.66612 5.1786 2.66612 5.56401V6.00692C2.66612 6.3902 2.90449 6.70322 3.2 6.70322H12.2678C12.5616 6.70322 12.8016 6.39233 12.8016 6.00692V5.56401C12.8016 5.18073 12.5633 4.86771 12.2694 4.86771ZM13.8694 0H2.13388C0.955102 0 0 1.24567 0 2.78094V13.2169C0 14.7522 0.955102 16 2.13388 16H3.22612H5.81958H9.06612H13.8661C15.0433 16 16 14.7543 16 13.2169V8.49129L18.6574 4.86771L16 3.39953V2.78094C16.0016 1.24567 15.0465 0 13.8694 0ZM14.7886 13.0253C14.7886 13.794 14.3102 14.4179 13.7208 14.4179H8.50612H5.81958H4.14402L2.28082 14.4158C1.69143 14.4158 1.21306 13.7919 1.21306 13.0232V2.97258C1.21306 2.20389 1.69143 1.57998 2.28082 1.57998H13.7224C14.3118 1.57998 14.7902 2.20389 14.7902 2.97258V3.99534L17.0592 4.99768L14.7902 8.04529L14.7886 13.0253ZM9.06775 9.54591H3.2C2.90612 9.54591 2.66612 9.85893 2.66612 10.2422V10.6851C2.66612 11.0684 2.90449 11.3814 3.2 11.3814H9.06775C9.36163 11.3814 9.60163 11.0705 9.60163 10.6851V10.2422C9.60163 9.85893 9.36326 9.54591 9.06775 9.54591Z" fill="#3B4455"/>
</svg>
