<svg width="19" height="16" viewBox="0 0 19 16" fill="none" xmlns="http://www.w3.org/2000/svg">
<path d="M8.87437 4.38082H7.54103V8.0655L4.41532 9.9069L5.08199 10.9717L8.87437 8.72047V4.38082ZM8.00008 0C5.8058 0 3.92389 0.763509 2.35437 2.2924C0.784843 3.82129 8.2016e-05 5.67579 8.2016e-05 7.85965C8.2016e-05 10.0435 0.784843 11.898 2.35437 13.4269C3.92199 14.9558 5.80389 15.7193 8.00008 15.7193C10.1963 15.7193 12.0706 14.9558 13.6248 13.4269L12.3753 12.1581C11.1525 13.3595 9.69342 13.9602 8.00008 13.9602C6.27818 13.9602 4.8058 13.367 3.58294 12.1787C2.36008 10.9923 1.74865 9.55134 1.74865 7.85965C1.74865 6.16795 2.36008 4.72889 3.58294 3.54059C4.8058 2.35415 6.27818 1.75906 8.00008 1.75906C9.72199 1.75906 11.1867 2.35228 12.3963 3.54059C13.6039 4.72702 14.2096 6.16795 14.2096 7.85965H11.5429L15.1239 11.3815L15.2077 11.258L18.6667 7.85965H16.0001C16.0001 5.67579 15.2153 3.82129 13.6458 2.2924C12.0763 0.763509 10.1944 0 8.00008 0Z" fill="#3B4455"/>
</svg>
