<svg width="48" height="48" viewBox="0 0 48 48" fill="none" xmlns="http://www.w3.org/2000/svg">
<circle cx="24" cy="24" r="23.5" fill="#F2F8FE" stroke="#D8E7F6"/>
<path d="M36.6452 23.5172H33.4839V14.0334C33.4839 13.2852 32.8772 12.6785 32.129 12.6785H11.3548C10.6066 12.6785 10 13.2852 10 14.0334V28.9366C10 29.6848 10.6066 30.2914 11.3548 30.2914H12.7097V35.2592C12.7097 35.4493 12.8288 35.6188 13.0074 35.6837C13.1862 35.7487 13.3867 35.6945 13.5086 35.5483L17.8893 30.2914H20.8387V34.8076C20.8387 35.5558 21.4453 36.1624 22.1935 36.1624H33.1L34.9064 39.1078C35.0125 39.2789 35.2191 39.3592 35.4129 39.3045C35.6068 39.2498 35.7411 39.0734 35.7419 38.8721V36.1624H36.6452C37.3934 36.1624 38 35.5558 38 34.8076V24.8721C38 24.1239 37.3934 23.5172 36.6452 23.5172ZM17.6774 29.3882C17.5433 29.388 17.4161 29.4473 17.3301 29.5503L13.6129 34.0117V29.8398C13.6129 29.5904 13.4107 29.3882 13.1613 29.3882H11.3548C11.1054 29.3882 10.9032 29.186 10.9032 28.9366V14.0334C10.9032 13.784 11.1054 13.5818 11.3548 13.5818H32.129C32.3784 13.5818 32.5806 13.784 32.5806 14.0334V23.5172H22.1935C21.4453 23.5172 20.8387 24.1239 20.8387 24.8721V29.3882H17.6774ZM37.0968 34.8076C37.0968 35.057 36.8946 35.2592 36.6452 35.2592H35.2903C35.0409 35.2592 34.8387 35.4614 34.8387 35.7108V37.2707L33.7377 35.4751C33.6557 35.341 33.5099 35.2594 33.3529 35.2592H22.1935C21.9441 35.2592 21.7419 35.057 21.7419 34.8076V24.8721C21.7419 24.6227 21.9441 24.4205 22.1935 24.4205H36.6452C36.8946 24.4205 37.0968 24.6227 37.0968 24.8721V34.8076Z" fill="#008ED4"/>
<circle cx="33.3955" cy="29.6063" r="1" fill="#008ED4"/>
<circle cx="29.3955" cy="29.6063" r="1" fill="#008ED4"/>
<circle cx="25.3955" cy="29.6063" r="1" fill="#008ED4"/>
<line x1="13.7771" y1="19.0495" x2="29.7771" y2="19.0495" stroke="#008ED4"/>
<line x1="13.7771" y1="24.0495" x2="18.7771" y2="24.0495" stroke="#008ED4"/>
</svg>
