<svg width="48" height="49" viewBox="0 0 48 49" fill="none" xmlns="http://www.w3.org/2000/svg">
<path d="M24 48.3814C37.2186 48.3814 48 37.6413 48 24.3814C48 11.1215 37.2186 0.381409 24 0.381409C10.7814 0.381409 0 11.1628 0 24.3814C0 37.6 10.7814 48.3814 24 48.3814ZM24 3.76867C35.3597 3.76867 44.6127 13.0217 44.6127 24.3814C44.6127 35.7411 35.3597 44.9941 24 44.9941C12.6403 44.9941 3.38726 35.7411 3.38726 24.3814C3.38726 13.0217 12.6403 3.76867 24 3.76867Z" fill="white"/>
<path d="M18.4647 36.3608C18.7952 36.6912 19.2082 36.8564 19.6626 36.8564C20.0757 36.8564 20.5301 36.6912 20.8606 36.3608L31.7659 25.4554C32.0964 25.1249 32.2616 24.7119 32.2616 24.2575C32.2616 23.8031 32.0964 23.39 31.7659 23.0595L20.8606 12.1542C20.1996 11.4933 19.1256 11.4933 18.4647 12.1542C17.8038 12.8151 17.8038 13.8891 18.4647 14.5501L28.1721 24.2575L18.4647 33.9649C17.8038 34.6258 17.8038 35.6998 18.4647 36.3608Z" fill="white"/>
</svg>
