<svg width="9" height="16" viewBox="0 0 9 16" fill="none" xmlns="http://www.w3.org/2000/svg">
<path d="M7.5045 11.9674C7.57234 11.9665 7.63269 11.9884 7.6854 12.0329L8.08102 12.3667C8.13375 12.4112 8.16055 12.4629 8.16128 12.5216C8.162 12.5803 8.13645 12.6326 8.08485 12.6784L4.47565 15.881C4.42403 15.9269 4.36426 15.9502 4.29642 15.951C4.22858 15.9519 4.16825 15.93 4.11555 15.8855L0.428637 12.7744C0.375819 12.7299 0.349187 12.6784 0.348463 12.6196C0.347739 12.5608 0.373177 12.5085 0.424802 12.4628L0.81186 12.1191C0.863457 12.0733 0.923256 12.0499 0.991175 12.0491C1.05893 12.0482 1.11926 12.0701 1.17197 12.1146L4.28149 14.7384L7.32527 12.0374C7.37687 11.9915 7.43667 11.9682 7.5045 11.9674Z" fill="#57606F"/>
<path d="M7.4143 3.95096C7.48214 3.95011 7.54194 3.92674 7.59353 3.88093L7.98081 3.53726C8.03243 3.49145 8.05795 3.43916 8.05723 3.38045C8.05651 3.32175 8.02968 3.27009 7.97697 3.22562L4.29006 0.114489C4.23733 0.0699178 4.177 0.0481291 4.10916 0.0489797C4.04133 0.0498302 3.98156 0.0731959 3.92996 0.119004L0.320756 3.32159C0.269049 3.36737 0.243694 3.41959 0.244418 3.47839C0.245141 3.53719 0.271857 3.58875 0.324592 3.63323L0.719989 3.96709C0.772697 4.01159 0.833053 4.03345 0.900973 4.0326C0.968727 4.03175 1.0285 4.00838 1.0801 3.96257L4.12409 1.26165L7.2334 3.88545C7.28611 3.93002 7.34646 3.95181 7.4143 3.95096Z" fill="#008ED4"/>
</svg>
