<svg xmlns="http://www.w3.org/2000/svg" style="display:none">
  <defs>

    <symbol viewBox="0 0 48 48" id="round__arrow_right">
      <path d="M24 48C37.2186 48 48 37.2599 48 24C48 10.7401 37.2186 0 24 0C10.7814 0 0 10.7814 0 24C0 37.2186 10.7814 48 24 48ZM24 3.38726C35.3597 3.38726 44.6127 12.6403 44.6127 24C44.6127 35.3597 35.3597 44.6127 24 44.6127C12.6403 44.6127 3.38726 35.3597 3.38726 24C3.38726 12.6403 12.6403 3.38726 24 3.38726Z"/>
      <path d="M18.4647 35.9794C18.7952 36.3098 19.2082 36.475 19.6626 36.475C20.0757 36.475 20.5301 36.3098 20.8606 35.9794L31.7659 25.074C32.0964 24.7435 32.2616 24.3305 32.2616 23.8761C32.2616 23.4217 32.0964 23.0086 31.7659 22.6781L20.8606 11.7728C20.1996 11.1119 19.1256 11.1119 18.4647 11.7728C17.8038 12.4337 17.8038 13.5077 18.4647 14.1687L28.1721 23.8761L18.4647 33.5835C17.8038 34.2444 17.8038 35.3184 18.4647 35.9794Z"/>
    </symbol>

  </defs>
</svg>